<svg xmlns="http://www.w3.org/2000/svg" xmlns:xlink="http://www.w3.org/1999/xlink" viewBox="0 0 460.52 99.68"><defs><linearGradient id="a" x1="6.03" y1="54.58" x2="458.34" y2="54.58" gradientUnits="userSpaceOnUse"><stop offset="0" stop-color="#c15c9f"/><stop offset="0.11" stop-color="#824192"/><stop offset="0.24" stop-color="#007695"/><stop offset="0.36" stop-color="#c1d8f2"/><stop offset="0.51" stop-color="#98c662"/><stop offset="0.65" stop-color="#fd0"/><stop offset="0.79" stop-color="#ef7d00"/><stop offset="0.9" stop-color="#e30613"/><stop offset="1" stop-color="#bf1c39"/></linearGradient></defs><title>Asset 1</title><path d="M243.51,65.09H221.94V43.5h12.91V57h8.65v2.6h-2.67v3.28h2.67ZM55.88,87H58l0,8.44H44.26V92.87H40.49v2.52H24.15V92.78h-3.1l0,2.61H6l0-4.32V86.73h0V78.2h6.53V90.34h8.55V78.14H58V84H55.88ZM44,82.07H38.7v3.47H44ZM241.81,38.26v4.46l23,0,.39-4H275v4h11.64V37.27h7.32v5.45h13.2V37H313v5.69h28.43V37.39h6.36v5.34h13.8v-8h8l0-3.69h4.25l0-3.87h8.46v7.56h3.19v3.84h3.89v4.13h22.91V38.83h4.26l0-23.3h-4.16V11.65H237.85l.13,26.7Zm-57,46H187v-6.1H107.85v2.23h-2.54l-.25-2.17H75L75,82.43v0l.19,4.26V95.4h8.62V93h1.38v-6.3h5V93H92.4l0,2.42h12.84l0-2.14h2.15V91.09h6.5l0,4.3h15.06l0-2.24h5.29l0,2.24h14.05l0-17.17h6.24v12h2.72v5.12h7.8V82.54h7.7V95.36H187V86.88h-2.18Zm271.34,0v3h2.14v8.14H443.76v-3H440.5v3H424.57V93.05h-4.92v2.31h-15V91.09l-6.45,0v6.46h-4.32l0-2.15H383.08V91.1l-2.19,0V88.51l-4.95-.07v6.92h-7.25V92.17h-3.06v3.19h-8.34V92.92h-2.64v2.44h-7.33V91.09h-7.2v4.27H327.18V92.78h-2.11L325,90.55h-1.15V86.79l-7.4,0v4.3l3.74,0v4.27h-8V93.12h-2.37v2.24h-8.07V84h-7V95.36h-7.93v-4.2h-2.78v-13l56,0,0,2.26h2.62v-2.3H396v2.3h3v-2.3h59.34v6.1ZM443.69,82H439v5h4.68ZM277.76,78.16l0,17.24-12.92,0V93h-2.13V88.78h-6.41l0,6.62H242.38l0-2.89h-3.66v2.88H223V88.78h-7.2v6.61H202.66V86.73h0V78.2H230.2V89.73h8.89V78.21Zm-58.88,4.18h-3.06v2.51h3.06ZM208.2,42.69V27.26h0V11.65H51.49V27.2h0l.06,11.44h3.87v4.08H78.71V38.59h9.13v4.13h13.67V38.23h6.24v4.49h13.32V38h5.27v4.73h29.15v-7H162v7h13V32.83h8.65V31.07H189v1.76h7v9.86ZM207,76h2.28v0h2.24V73.91h2.1V71.27H207Z" style="fill:url(#a)"/><polygon points="67.14 42.72 63.26 42.72 59.38 42.72 59.38 46.6 63.26 46.6 67.14 46.6 71.03 46.6 74.91 46.6 74.91 42.72 71.03 42.72 67.14 42.72" style="fill:#260b35"/><rect x="74.91" y="38.84" width="3.88" height="3.88" style="fill:#260b35"/><rect x="51.61" y="34.95" width="3.88" height="3.88" style="fill:#260b35"/><rect x="55.49" y="38.84" width="3.88" height="3.88" style="fill:#260b35"/><polygon points="51.61 27.19 51.61 23.3 51.61 19.42 55.49 19.42 55.49 15.54 59.38 15.54 59.38 11.65 63.26 11.65 67.14 11.65 71.03 11.65 74.91 11.65 74.91 7.77 71.03 7.77 71.03 3.88 67.14 3.88 67.14 0 63.26 0 59.38 0 55.49 0 51.61 0 51.61 3.88 47.73 3.88 47.73 7.77 43.84 7.77 43.84 11.65 39.96 11.65 39.96 15.54 39.96 19.42 39.96 23.3 39.96 27.19 43.84 27.19 43.84 31.07 47.73 31.07 47.73 34.95 51.61 34.95 51.61 31.07 51.61 27.19" style="fill:#260b35"/><polygon points="109.86 42.72 109.86 46.6 113.75 46.6 117.63 46.6 117.63 42.72 113.75 42.72 109.86 42.72" style="fill:#260b35"/><polygon points="109.86 34.95 109.86 31.07 105.98 31.07 102.1 31.07 98.21 31.07 98.21 34.95 98.21 38.84 98.21 42.72 102.1 42.72 102.1 38.84 105.98 38.84 105.98 42.72 109.86 42.72 109.86 38.84 109.86 34.95" style="fill:#260b35"/><polygon points="90.44 42.72 90.44 46.6 94.33 46.6 98.21 46.6 98.21 42.72 94.33 42.72 90.44 42.72" style="fill:#260b35"/><polygon points="144.82 42.72 144.82 46.6 148.7 46.6 152.58 46.6 152.58 42.72 148.7 42.72 144.82 42.72" style="fill:#260b35"/><polygon points="137.05 19.42 137.05 23.3 137.05 27.19 137.05 31.07 140.93 31.07 144.82 31.07 144.82 27.19 144.82 23.3 144.82 19.42 140.93 19.42 137.05 19.42" style="fill:#260b35"/><polygon points="140.93 38.84 137.05 38.84 137.05 42.72 140.93 42.72 144.82 42.72 144.82 38.84 140.93 38.84" style="fill:#260b35"/><polygon points="129.28 42.72 129.28 46.6 133.16 46.6 137.05 46.6 137.05 42.72 133.16 42.72 129.28 42.72" style="fill:#260b35"/><polygon points="129.28 34.95 129.28 31.07 129.28 27.19 129.28 23.3 129.28 19.42 129.28 15.54 133.16 15.54 133.16 11.65 137.05 11.65 140.93 11.65 144.82 11.65 148.7 11.65 148.7 7.77 144.82 7.77 144.82 3.88 140.93 3.88 140.93 0 137.05 0 133.16 0 129.28 0 125.4 0 125.4 3.88 121.52 3.88 121.52 7.77 117.63 7.77 113.75 7.77 113.75 3.88 109.86 3.88 109.86 0 105.98 0 102.1 0 102.1 3.88 98.21 3.88 98.21 7.77 94.33 7.77 94.33 3.88 90.44 3.88 90.44 0 86.56 0 82.68 0 82.68 3.88 78.8 3.88 78.8 7.77 78.8 11.65 74.91 11.65 74.91 15.54 78.8 15.54 78.8 19.42 78.8 23.3 74.91 23.3 71.03 23.3 71.03 19.42 67.14 19.42 63.26 19.42 63.26 23.3 59.38 23.3 59.38 27.19 59.38 31.07 63.26 31.07 63.26 34.95 67.14 34.95 71.03 34.95 71.03 31.07 74.91 31.07 78.8 31.07 78.8 34.95 78.8 38.84 82.68 38.84 86.56 38.84 86.56 42.72 90.44 42.72 90.44 38.84 90.44 34.95 90.44 31.07 90.44 27.19 90.44 23.3 90.44 19.42 90.44 15.54 90.44 11.65 94.33 11.65 98.21 11.65 98.21 15.54 98.21 19.42 98.21 23.3 102.1 23.3 105.98 23.3 109.86 23.3 109.86 19.42 109.86 15.54 109.86 11.65 113.75 11.65 117.63 11.65 117.63 15.54 117.63 19.42 117.63 23.3 117.63 27.19 117.63 31.07 117.63 34.95 117.63 38.84 117.63 42.72 121.52 42.72 121.52 38.84 125.4 38.84 125.4 42.72 129.28 42.72 129.28 38.84 129.28 34.95" style="fill:#260b35"/><polygon points="172 19.42 172 23.3 175.89 23.3 179.77 23.3 179.77 19.42 175.89 19.42 172 19.42" style="fill:#260b35"/><polygon points="175.89 31.07 172 31.07 172 34.95 172 38.84 172 42.72 175.89 42.72 175.89 38.84 175.89 34.95 179.77 34.95 183.65 34.95 183.65 31.07 179.77 31.07 175.89 31.07" style="fill:#260b35"/><polygon points="164.24 34.95 164.24 31.07 164.24 27.19 164.24 23.3 164.24 19.42 164.24 15.54 164.24 11.65 168.12 11.65 172 11.65 175.89 11.65 179.77 11.65 183.65 11.65 183.65 7.77 179.77 7.77 179.77 3.88 175.89 3.88 175.89 0 172 0 168.12 0 164.24 0 160.35 0 156.47 0 156.47 3.88 152.58 3.88 152.58 7.77 152.58 11.65 148.7 11.65 148.7 15.54 152.58 15.54 152.58 19.42 152.58 23.3 152.58 27.19 152.58 31.07 152.58 34.95 152.58 38.84 152.58 42.72 156.47 42.72 156.47 38.84 160.35 38.84 160.35 42.72 164.24 42.72 164.24 38.84 164.24 34.95" style="fill:#260b35"/><polygon points="164.24 42.72 164.24 46.6 168.12 46.6 172 46.6 172 42.72 168.12 42.72 164.24 42.72" style="fill:#260b35"/><polygon points="199.19 42.72 199.19 46.6 203.07 46.6 206.96 46.6 206.96 42.72 203.07 42.72 199.19 42.72" style="fill:#260b35"/><polygon points="206.96 15.54 206.96 19.42 206.96 23.3 206.96 27.19 206.96 31.07 206.96 34.95 206.96 38.84 206.96 42.72 210.84 42.72 210.84 38.84 210.84 34.95 210.84 31.07 210.84 27.19 210.84 23.3 210.84 19.42 210.84 15.54 210.84 11.65 206.96 11.65 206.96 15.54" style="fill:#260b35"/><polygon points="199.19 34.95 199.19 31.07 199.19 27.19 199.19 23.3 199.19 19.42 199.19 15.54 199.19 11.65 203.07 11.65 206.96 11.65 206.96 7.77 203.07 7.77 203.07 3.88 199.19 3.88 199.19 0 195.31 0 191.42 0 191.42 3.88 187.54 3.88 187.54 7.77 187.54 11.65 183.65 11.65 183.65 15.54 187.54 15.54 187.54 19.42 187.54 23.3 187.54 27.19 183.65 27.19 183.65 31.07 187.54 31.07 187.54 34.95 191.42 34.95 191.42 38.84 195.31 38.84 195.31 42.72 199.19 42.72 199.19 38.84 199.19 34.95" style="fill:#260b35"/><rect x="241.91" y="38.84" width="3.89" height="3.88" style="fill:#260b35"/><rect x="238.03" y="34.95" width="3.88" height="3.88" style="fill:#260b35"/><polygon points="253.56 42.72 249.68 42.72 245.79 42.72 245.79 46.6 249.68 46.6 253.56 46.6 257.44 46.6 261.33 46.6 261.33 42.72 257.44 42.72 253.56 42.72" style="fill:#260b35"/><rect x="261.33" y="38.84" width="3.88" height="3.88" style="fill:#260b35"/><polygon points="238.03 27.19 238.03 23.3 238.03 19.42 241.91 19.42 241.91 15.54 245.79 15.54 245.79 11.65 249.68 11.65 253.56 11.65 257.44 11.65 261.33 11.65 261.33 7.77 257.44 7.77 257.44 3.88 253.56 3.88 253.56 0 249.68 0 245.79 0 241.91 0 238.03 0 238.03 3.88 234.15 3.88 234.15 7.77 230.26 7.77 230.26 11.65 226.38 11.65 226.38 15.54 226.38 19.42 226.38 23.3 226.38 27.19 230.26 27.19 230.26 31.07 234.15 31.07 234.15 34.95 238.03 34.95 238.03 31.07 238.03 27.19" style="fill:#260b35"/><polygon points="276.86 42.72 276.86 46.6 280.75 46.6 284.63 46.6 284.63 42.72 280.75 42.72 276.86 42.72" style="fill:#260b35"/><polygon points="296.28 42.72 296.28 46.6 300.16 46.6 304.05 46.6 304.05 42.72 300.16 42.72 296.28 42.72" style="fill:#260b35"/><polygon points="296.28 34.95 296.28 31.07 292.39 31.07 288.51 31.07 284.63 31.07 284.63 34.95 284.63 38.84 284.63 42.72 288.51 42.72 288.51 38.84 292.39 38.84 292.39 42.72 296.28 42.72 296.28 38.84 296.28 34.95" style="fill:#260b35"/><polygon points="315.7 42.72 315.7 46.6 319.58 46.6 323.47 46.6 323.47 42.72 319.58 42.72 315.7 42.72" style="fill:#260b35"/><polygon points="315.7 34.95 315.7 31.07 315.7 27.19 315.7 23.3 315.7 19.42 315.7 15.54 319.58 15.54 319.58 11.65 323.47 11.65 327.35 11.65 331.24 11.65 335.12 11.65 335.12 7.77 331.24 7.77 331.24 3.88 327.35 3.88 327.35 0 323.47 0 319.58 0 315.7 0 311.82 0 311.82 3.88 307.93 3.88 307.93 7.77 304.05 7.77 300.16 7.77 300.16 3.88 296.28 3.88 296.28 0 292.39 0 288.51 0 288.51 3.88 284.63 3.88 284.63 7.77 280.75 7.77 280.75 3.88 276.86 3.88 276.86 0 272.98 0 269.1 0 269.1 3.88 265.21 3.88 265.21 7.77 265.21 11.65 261.33 11.65 261.33 15.54 265.21 15.54 265.21 19.42 265.21 23.3 261.33 23.3 257.44 23.3 257.44 19.42 253.56 19.42 249.68 19.42 249.68 23.3 245.79 23.3 245.79 27.19 245.79 31.07 249.68 31.07 249.68 34.95 253.56 34.95 257.44 34.95 257.44 31.07 261.33 31.07 265.21 31.07 265.21 34.95 265.21 38.84 269.1 38.84 272.98 38.84 272.98 42.72 276.86 42.72 276.86 38.84 276.86 34.95 276.86 31.07 276.86 27.19 276.86 23.3 276.86 19.42 276.86 15.54 276.86 11.65 280.75 11.65 284.63 11.65 284.63 15.54 284.63 19.42 284.63 23.3 288.51 23.3 292.39 23.3 296.28 23.3 296.28 19.42 296.28 15.54 296.28 11.65 300.16 11.65 304.05 11.65 304.05 15.54 304.05 19.42 304.05 23.3 304.05 27.19 304.05 31.07 304.05 34.95 304.05 38.84 304.05 42.72 307.93 42.72 307.93 38.84 311.82 38.84 311.82 42.72 315.7 42.72 315.7 38.84 315.7 34.95" style="fill:#260b35"/><polygon points="331.24 42.72 331.24 46.6 335.12 46.6 339 46.6 339 42.72 335.12 42.72 331.24 42.72" style="fill:#260b35"/><polygon points="323.47 19.42 323.47 23.3 323.47 27.19 323.47 31.07 327.35 31.07 331.24 31.07 331.24 27.19 331.24 23.3 331.24 19.42 327.35 19.42 323.47 19.42" style="fill:#260b35"/><polygon points="327.35 38.84 323.47 38.84 323.47 42.72 327.35 42.72 331.24 42.72 331.24 38.84 327.35 38.84" style="fill:#260b35"/><polygon points="350.65 42.72 350.65 46.6 354.54 46.6 358.42 46.6 358.42 42.72 354.54 42.72 350.65 42.72" style="fill:#260b35"/><polygon points="358.42 19.42 358.42 23.3 362.31 23.3 366.19 23.3 366.19 19.42 362.31 19.42 358.42 19.42" style="fill:#260b35"/><polygon points="362.31 31.07 358.42 31.07 358.42 34.95 358.42 38.84 358.42 42.72 362.31 42.72 362.31 38.84 362.31 34.95 366.19 34.95 370.07 34.95 370.07 31.07 366.19 31.07 362.31 31.07" style="fill:#260b35"/><rect x="370.07" y="27.19" width="3.88" height="3.88" style="fill:#260b35"/><polygon points="350.65 34.95 350.65 31.07 350.65 27.19 350.65 23.3 350.65 19.42 350.65 15.54 350.65 11.65 354.54 11.65 358.42 11.65 362.31 11.65 366.19 11.65 370.07 11.65 370.07 7.77 366.19 7.77 366.19 3.88 362.31 3.88 362.31 0 358.42 0 354.54 0 350.65 0 346.77 0 342.89 0 342.89 3.88 339 3.88 339 7.77 339 11.65 335.12 11.65 335.12 15.54 339 15.54 339 19.42 339 23.3 339 27.19 339 31.07 339 34.95 339 38.84 339 42.72 342.89 42.72 342.89 38.84 346.77 38.84 346.77 42.72 350.65 42.72 350.65 38.84 350.65 34.95" style="fill:#260b35"/><rect x="385.61" y="34.95" width="3.88" height="3.88" style="fill:#260b35"/><rect x="412.79" y="34.95" width="3.88" height="3.88" style="fill:#260b35"/><polygon points="385.61 27.19 385.61 23.3 385.61 19.42 389.49 19.42 389.49 15.54 393.38 15.54 393.38 11.65 397.26 11.65 401.14 11.65 405.02 11.65 408.91 11.65 408.91 7.77 405.02 7.77 405.02 3.88 401.14 3.88 401.14 0 397.26 0 393.38 0 389.49 0 385.61 0 385.61 3.88 381.72 3.88 381.72 7.77 377.84 7.77 377.84 11.65 373.95 11.65 370.07 11.65 370.07 15.54 373.95 15.54 373.95 19.42 373.95 23.3 373.95 27.19 377.84 27.19 377.84 31.07 381.72 31.07 381.72 34.95 385.61 34.95 385.61 31.07 385.61 27.19" style="fill:#260b35"/><rect x="408.91" y="38.84" width="3.88" height="3.88" style="fill:#260b35"/><rect x="408.91" y="11.65" width="3.88" height="3.88" style="fill:#260b35"/><rect x="412.79" y="15.54" width="3.88" height="3.88" style="fill:#260b35"/><polygon points="401.14 42.72 397.26 42.72 393.38 42.72 393.38 46.6 397.26 46.6 401.14 46.6 405.02 46.6 408.91 46.6 408.91 42.72 405.02 42.72 401.14 42.72" style="fill:#260b35"/><rect x="389.49" y="38.84" width="3.88" height="3.88" style="fill:#260b35"/><polygon points="405.02 19.42 401.14 19.42 397.26 19.42 397.26 23.3 393.38 23.3 393.38 27.19 393.38 31.07 397.26 31.07 397.26 34.95 401.14 34.95 405.02 34.95 405.02 31.07 408.91 31.07 408.91 27.19 408.91 23.3 405.02 23.3 405.02 19.42" style="fill:#260b35"/><polygon points="416.68 19.42 416.68 23.3 416.68 27.19 416.68 31.07 416.68 34.95 420.56 34.95 420.56 31.07 420.56 27.19 420.56 23.3 420.56 19.42 416.68 19.42" style="fill:#260b35"/><path d="M222,62.38h-2.69v-2.7h-2.7V57h-2.7V51.59h2.7v-2.7h2.7V46.2h-2.7V38.1h2.7V35.4h8.09v2.7h2.7v2.7h2.7v2.7h2.69v8.09h2.7v2.7h2.7V57h2.7v2.7h-2.7V57h-2.7v2.7h-2.7V57h-2.69V54.29h-2.7v-2.7h2.7V43.5h-8.1v8.09h2.7v2.7h-2.7V57H222v5.4Zm2.7,2.7H222v-2.7h2.7Zm5.4-2.7h-5.4V57h5.4v5.4Zm-2.7,2.7h2.7v2.7h-5.4v-2.7Zm0-16.19V46.2h2.7v2.69Zm2.7,16.19v-2.7h2.7v2.7Zm5.39-2.7h-2.69v-2.7h2.69Zm2.7,2.7h-2.7v-2.7h2.7Zm2.7-2.7h-2.7v-2.7h2.7Zm-2.7,5.4v-2.7h2.7v2.7Zm2.7-2.7v-2.7h2.7v2.7Z" style="fill:#260b35"/><polygon points="15.04 95.39 12.9 95.39 10.75 95.39 8.6 95.39 6.45 95.39 6.45 97.54 8.6 97.54 10.75 97.54 12.9 97.54 15.04 97.54 17.2 97.54 19.34 97.54 19.34 95.39 17.2 95.39 15.04 95.39" style="fill:#260b35"/><polygon points="6.45 91.09 6.45 88.94 6.45 86.79 6.45 84.64 6.45 82.49 6.45 80.34 6.45 78.19 8.6 78.19 10.75 78.19 10.75 76.04 8.6 76.04 8.6 73.89 6.45 73.89 6.45 71.74 4.3 71.74 2.15 71.74 2.15 73.89 0 73.89 0 76.04 0 78.19 0 80.34 0 82.49 0 84.64 0 86.79 0 88.94 0 91.09 2.15 91.09 2.15 93.24 4.3 93.24 4.3 95.39 6.45 95.39 6.45 93.24 6.45 91.09" style="fill:#260b35"/><polygon points="34.39 82.49 32.24 82.49 30.09 82.49 30.09 84.64 32.24 84.64 34.39 84.64 36.54 84.64 38.69 84.64 38.69 82.49 36.54 82.49 34.39 82.49" style="fill:#260b35"/><polygon points="34.39 95.39 32.24 95.39 30.09 95.39 27.94 95.39 25.79 95.39 25.79 97.54 27.94 97.54 30.09 97.54 32.24 97.54 34.39 97.54 36.54 97.54 38.69 97.54 38.69 95.39 36.54 95.39 34.39 95.39" style="fill:#260b35"/><rect x="55.89" y="86.79" width="2.15" height="2.15" style="fill:#260b35"/><polygon points="53.74 82.49 51.59 82.49 51.59 84.64 53.74 84.64 53.74 86.79 55.89 86.79 55.89 84.64 58.03 84.64 58.03 82.49 55.89 82.49 53.74 82.49" style="fill:#260b35"/><polygon points="58.03 93.24 60.19 93.24 60.19 91.09 60.19 88.94 58.03 88.94 58.03 91.09 58.03 93.24" style="fill:#260b35"/><polygon points="58.03 80.34 58.03 82.49 60.19 82.49 60.19 80.34 60.19 78.19 58.03 78.19 58.03 80.34" style="fill:#260b35"/><polygon points="51.59 95.39 49.44 95.39 47.29 95.39 45.14 95.39 45.14 97.54 47.29 97.54 49.44 97.54 51.59 97.54 53.74 97.54 55.89 97.54 55.89 95.39 53.74 95.39 51.59 95.39" style="fill:#260b35"/><polygon points="45.14 91.09 47.29 91.09 49.44 91.09 51.59 91.09 51.59 88.94 49.44 88.94 49.44 86.79 47.29 86.79 47.29 84.64 45.14 84.64 45.14 82.49 45.14 80.34 47.29 80.34 47.29 78.19 49.44 78.19 51.59 78.19 53.74 78.19 55.89 78.19 58.03 78.19 58.03 76.04 55.89 76.04 55.89 73.89 53.74 73.89 53.74 71.74 51.59 71.74 49.44 71.74 47.29 71.74 45.14 71.74 42.99 71.74 42.99 73.89 40.84 73.89 40.84 76.04 38.69 76.04 36.54 76.04 36.54 73.89 34.39 73.89 34.39 71.74 32.24 71.74 30.09 71.74 27.94 71.74 25.79 71.74 23.64 71.74 21.49 71.74 21.49 73.89 19.34 73.89 19.34 76.04 19.34 78.19 19.34 80.34 19.34 82.49 19.34 84.64 19.34 86.79 19.34 88.94 17.2 88.94 17.2 86.79 15.04 86.79 15.04 84.64 12.9 84.64 12.9 82.49 12.9 80.34 12.9 78.19 10.75 78.19 10.75 80.34 10.75 82.49 10.75 84.64 10.75 86.79 10.75 88.94 10.75 91.09 12.9 91.09 15.04 91.09 17.2 91.09 19.34 91.09 19.34 93.24 19.34 95.39 21.49 95.39 21.49 93.24 23.64 93.24 23.64 95.39 25.79 95.39 25.79 93.24 25.79 91.09 25.79 88.94 25.79 86.79 25.79 84.64 25.79 82.49 25.79 80.34 25.79 78.19 27.94 78.19 30.09 78.19 32.24 78.19 34.39 78.19 36.54 78.19 38.69 78.19 38.69 80.34 38.69 82.49 40.84 82.49 42.99 82.49 42.99 84.64 40.84 84.64 38.69 84.64 38.69 86.79 38.69 88.94 36.54 88.94 34.39 88.94 32.24 88.94 30.09 88.94 30.09 91.09 32.24 91.09 34.39 91.09 36.54 91.09 38.69 91.09 38.69 93.24 38.69 95.39 40.84 95.39 40.84 93.24 42.99 93.24 42.99 95.39 45.14 95.39 45.14 93.24 45.14 91.09" style="fill:#260b35"/><rect x="55.89" y="93.24" width="2.15" height="2.15" style="fill:#260b35"/><rect x="81.68" y="93.24" width="2.15" height="2.15" style="fill:#260b35"/><polygon points="77.38 95.39 77.38 97.54 79.53 97.54 81.68 97.54 81.68 95.39 79.53 95.39 77.38 95.39" style="fill:#260b35"/><rect x="75.23" y="93.24" width="2.15" height="2.15" style="fill:#260b35"/><polygon points="75.23 88.94 77.38 88.94 79.53 88.94 79.53 86.79 79.53 84.64 79.53 82.49 79.53 80.34 79.53 78.19 81.68 78.19 83.83 78.19 83.83 76.04 81.68 76.04 81.68 73.89 79.53 73.89 79.53 71.74 77.38 71.74 75.23 71.74 75.23 73.89 73.08 73.89 73.08 76.04 73.08 78.19 73.08 80.34 73.08 82.49 70.93 82.49 70.93 84.64 68.78 84.64 68.78 86.79 68.78 88.94 70.93 88.94 70.93 91.09 73.08 91.09 73.08 93.24 75.23 93.24 75.23 91.09 75.23 88.94" style="fill:#260b35"/><rect x="103.17" y="78.19" width="2.15" height="2.15" style="fill:#260b35"/><rect x="105.32" y="91.09" width="2.15" height="2.15" style="fill:#260b35"/><polygon points="98.87 95.39 96.72 95.39 94.58 95.39 94.58 97.54 96.72 97.54 98.87 97.54 101.02 97.54 103.17 97.54 103.17 95.39 101.02 95.39 98.87 95.39" style="fill:#260b35"/><polygon points="90.28 86.79 90.28 84.64 90.28 82.49 92.43 82.49 92.43 80.34 94.58 80.34 94.58 78.19 96.72 78.19 98.87 78.19 101.02 78.19 103.17 78.19 103.17 76.04 101.02 76.04 101.02 73.89 98.87 73.89 98.87 71.74 96.72 71.74 94.58 71.74 92.43 71.74 90.28 71.74 90.28 73.89 88.13 73.89 88.13 76.04 85.98 76.04 85.98 78.19 83.83 78.19 83.83 80.34 83.83 82.49 83.83 84.64 83.83 86.79 83.83 88.94 83.83 91.09 83.83 93.24 85.98 93.24 85.98 91.09 85.98 88.94 88.13 88.94 88.13 91.09 90.28 91.09 90.28 88.94 90.28 86.79" style="fill:#260b35"/><rect x="103.17" y="93.24" width="2.15" height="2.15" style="fill:#260b35"/><rect x="90.28" y="91.09" width="2.15" height="2.15" style="fill:#260b35"/><polygon points="101.02 82.49 98.87 82.49 96.72 82.49 96.72 84.64 94.58 84.64 94.58 86.79 94.58 88.94 96.72 88.94 96.72 91.09 98.87 91.09 101.02 91.09 101.02 88.94 103.17 88.94 103.17 86.79 103.17 84.64 101.02 84.64 101.02 82.49" style="fill:#260b35"/><rect x="92.43" y="93.24" width="2.15" height="2.15" style="fill:#260b35"/><rect x="126.82" y="93.24" width="2.15" height="2.15" style="fill:#260b35"/><rect x="113.92" y="93.24" width="2.15" height="2.15" style="fill:#260b35"/><polygon points="122.52 95.39 120.37 95.39 118.22 95.39 116.07 95.39 116.07 97.54 118.22 97.54 120.37 97.54 122.52 97.54 124.67 97.54 126.82 97.54 126.82 95.39 124.67 95.39 122.52 95.39" style="fill:#260b35"/><polygon points="148.31 88.94 150.46 88.94 150.46 86.79 150.46 84.64 148.31 84.64 148.31 86.79 148.31 88.94" style="fill:#260b35"/><polygon points="144.01 95.39 141.86 95.39 139.71 95.39 137.56 95.39 135.41 95.39 135.41 97.54 137.56 97.54 139.71 97.54 141.86 97.54 144.01 97.54 146.16 97.54 148.31 97.54 148.31 95.39 146.16 95.39 144.01 95.39" style="fill:#260b35"/><polygon points="144.01 88.94 141.86 88.94 139.71 88.94 139.71 91.09 141.86 91.09 144.01 91.09 146.16 91.09 148.31 91.09 148.31 88.94 146.16 88.94 144.01 88.94" style="fill:#260b35"/><polygon points="144.01 82.49 141.86 82.49 139.71 82.49 139.71 84.64 141.86 84.64 144.01 84.64 146.16 84.64 148.31 84.64 148.31 82.49 146.16 82.49 144.01 82.49" style="fill:#260b35"/><polygon points="148.31 95.39 150.46 95.39 150.46 93.24 150.46 91.09 148.31 91.09 148.31 93.24 148.31 95.39" style="fill:#260b35"/><polygon points="163.36 82.49 163.36 84.64 163.36 86.79 163.36 88.94 163.36 91.09 163.36 93.24 163.36 95.39 165.51 95.39 165.51 93.24 165.51 91.09 165.51 88.94 165.51 86.79 165.51 84.64 167.66 84.64 167.66 82.49 165.51 82.49 163.36 82.49" style="fill:#260b35"/><polygon points="159.06 95.39 159.06 97.54 161.21 97.54 163.36 97.54 163.36 95.39 161.21 95.39 159.06 95.39" style="fill:#260b35"/><polygon points="180.56 95.39 178.4 95.39 176.25 95.39 174.11 95.39 174.11 97.54 176.25 97.54 178.4 97.54 180.56 97.54 182.7 97.54 184.85 97.54 184.85 95.39 182.7 95.39 180.56 95.39" style="fill:#260b35"/><polygon points="174.11 91.09 176.25 91.09 178.4 91.09 180.56 91.09 180.56 88.94 178.4 88.94 178.4 86.79 176.25 86.79 176.25 84.64 174.11 84.64 174.11 82.49 174.11 80.34 176.25 80.34 176.25 78.19 178.4 78.19 180.56 78.19 182.7 78.19 184.85 78.19 187 78.19 187 76.04 184.85 76.04 184.85 73.89 182.7 73.89 182.7 71.74 180.56 71.74 178.4 71.74 176.25 71.74 174.11 71.74 171.96 71.74 171.96 73.89 169.81 73.89 169.81 76.04 167.66 76.04 165.51 76.04 165.51 73.89 163.36 73.89 163.36 71.74 161.21 71.74 159.06 71.74 156.91 71.74 154.76 71.74 152.61 71.74 150.46 71.74 150.46 73.89 148.31 73.89 148.31 76.04 146.16 76.04 146.16 73.89 144.01 73.89 144.01 71.74 141.86 71.74 139.71 71.74 137.56 71.74 135.41 71.74 133.27 71.74 131.12 71.74 131.12 73.89 128.97 73.89 128.97 76.04 126.82 76.04 126.82 73.89 124.67 73.89 124.67 71.74 122.52 71.74 120.37 71.74 120.37 73.89 118.22 73.89 118.22 76.04 116.07 76.04 116.07 73.89 113.92 73.89 113.92 71.74 111.77 71.74 109.62 71.74 109.62 73.89 107.47 73.89 107.47 76.04 107.47 78.19 107.47 80.34 105.32 80.34 105.32 82.49 107.47 82.49 107.47 84.64 107.47 86.79 107.47 88.94 107.47 91.09 109.62 91.09 111.77 91.09 111.77 93.24 113.92 93.24 113.92 91.09 113.92 88.94 113.92 86.79 113.92 84.64 113.92 82.49 113.92 80.34 113.92 78.19 116.07 78.19 118.22 78.19 118.22 80.34 118.22 82.49 118.22 84.64 118.22 86.79 118.22 88.94 120.37 88.94 122.52 88.94 124.67 88.94 124.67 86.79 124.67 84.64 124.67 82.49 124.67 80.34 124.67 78.19 126.82 78.19 128.97 78.19 128.97 80.34 128.97 82.49 128.97 84.64 128.97 86.79 128.97 88.94 128.97 91.09 128.97 93.24 131.12 93.24 133.27 93.24 133.27 95.39 135.41 95.39 135.41 93.24 135.41 91.09 135.41 88.94 135.41 86.79 135.41 84.64 135.41 82.49 135.41 80.34 135.41 78.19 137.56 78.19 139.71 78.19 141.86 78.19 144.01 78.19 146.16 78.19 148.31 78.19 148.31 80.34 148.31 82.49 150.46 82.49 150.46 80.34 152.61 80.34 152.61 82.49 152.61 84.64 152.61 86.79 152.61 88.94 152.61 91.09 154.76 91.09 154.76 93.24 156.91 93.24 156.91 95.39 159.06 95.39 159.06 93.24 159.06 91.09 159.06 88.94 159.06 86.79 159.06 84.64 159.06 82.49 156.91 82.49 154.76 82.49 154.76 80.34 154.76 78.19 156.91 78.19 159.06 78.19 161.21 78.19 163.36 78.19 165.51 78.19 167.66 78.19 167.66 80.34 167.66 82.49 169.81 82.49 171.96 82.49 171.96 84.64 169.81 84.64 169.81 86.79 167.66 86.79 167.66 88.94 167.66 91.09 169.81 91.09 169.81 93.24 171.96 93.24 171.96 95.39 174.11 95.39 174.11 93.24 174.11 91.09" style="fill:#260b35"/><polygon points="187 93.24 189.15 93.24 189.15 91.09 189.15 88.94 187 88.94 187 91.09 187 93.24" style="fill:#260b35"/><polygon points="187 80.34 187 82.49 189.15 82.49 189.15 80.34 189.15 78.19 187 78.19 187 80.34" style="fill:#260b35"/><rect x="184.85" y="93.24" width="2.15" height="2.15" style="fill:#260b35"/><polygon points="182.7 82.49 180.56 82.49 180.56 84.64 182.7 84.64 182.7 86.79 184.85 86.79 184.85 84.64 187 84.64 187 82.49 184.85 82.49 182.7 82.49" style="fill:#260b35"/><rect x="184.85" y="86.79" width="2.15" height="2.15" style="fill:#260b35"/><polygon points="232.68 95.39 230.53 95.39 228.38 95.39 226.23 95.39 224.08 95.39 224.08 97.54 226.23 97.54 228.38 97.54 230.53 97.54 232.68 97.54 234.83 97.54 236.98 97.54 236.98 95.39 234.83 95.39 232.68 95.39" style="fill:#260b35"/><polygon points="224.08 91.09 224.08 88.94 224.08 86.79 224.08 84.64 224.08 82.49 224.08 80.34 224.08 78.19 226.23 78.19 228.38 78.19 228.38 76.04 226.23 76.04 226.23 73.89 224.08 73.89 224.08 71.74 221.93 71.74 219.78 71.74 219.78 73.89 217.63 73.89 217.63 76.04 217.63 78.19 215.82 78.19 215.82 80.34 215.82 82.49 217.63 82.49 217.63 84.64 215.82 84.64 215.82 86.79 215.82 88.94 217.63 88.94 217.63 91.09 215.82 91.09 215.82 93.24 215.82 95.39 217.97 95.39 217.97 93.24 217.97 91.09 219.78 91.09 219.78 93.24 221.93 93.24 221.93 95.39 224.08 95.39 224.08 93.24 224.08 91.09" style="fill:#260b35"/><polygon points="252.02 95.39 249.87 95.39 247.72 95.39 245.58 95.39 243.42 95.39 243.42 97.54 245.58 97.54 247.72 97.54 249.87 97.54 252.02 97.54 254.17 97.54 256.32 97.54 256.32 95.39 254.17 95.39 252.02 95.39" style="fill:#260b35"/><polygon points="252.02 88.94 249.87 88.94 247.72 88.94 247.72 91.09 249.87 91.09 252.02 91.09 254.17 91.09 256.32 91.09 256.32 88.94 254.17 88.94 252.02 88.94" style="fill:#260b35"/><polygon points="243.42 91.09 243.42 88.94 243.42 86.79 243.42 84.64 243.42 82.49 243.42 80.34 243.42 78.19 245.58 78.19 247.72 78.19 249.87 78.19 252.02 78.19 254.17 78.19 256.32 78.19 256.32 76.04 254.17 76.04 254.17 73.89 252.02 73.89 252.02 71.74 249.87 71.74 247.72 71.74 245.58 71.74 243.42 71.74 241.28 71.74 239.13 71.74 239.13 73.89 236.98 73.89 236.98 76.04 236.98 78.19 236.98 80.34 236.98 82.49 236.98 84.64 236.98 86.79 236.98 88.94 234.83 88.94 234.83 86.79 232.68 86.79 232.68 84.64 230.53 84.64 230.53 82.49 230.53 80.34 230.53 78.19 228.38 78.19 228.38 80.34 228.38 82.49 228.38 84.64 228.38 86.79 228.38 88.94 228.38 91.09 230.53 91.09 232.68 91.09 234.83 91.09 236.98 91.09 236.98 93.24 236.98 95.39 239.13 95.39 239.13 93.24 241.28 93.24 241.28 95.39 243.42 95.39 243.42 93.24 243.42 91.09" style="fill:#260b35"/><polygon points="256.32 95.39 258.47 95.39 258.47 93.24 258.47 91.09 256.32 91.09 256.32 93.24 256.32 95.39" style="fill:#260b35"/><polygon points="211.53 88.94 209.38 88.94 207.22 88.94 207.22 91.09 209.38 91.09 211.53 91.09 213.67 91.09 215.82 91.09 215.82 88.94 213.67 88.94 211.53 88.94" style="fill:#260b35"/><polygon points="211.53 82.49 209.38 82.49 207.22 82.49 207.22 84.64 209.38 84.64 211.53 84.64 213.67 84.64 215.82 84.64 215.82 82.49 213.67 82.49 211.53 82.49" style="fill:#260b35"/><polygon points="211.53 95.39 209.38 95.39 207.22 95.39 205.08 95.39 202.93 95.39 202.93 97.54 205.08 97.54 207.22 97.54 209.38 97.54 211.53 97.54 213.67 97.54 215.82 97.54 215.82 95.39 213.67 95.39 211.53 95.39" style="fill:#260b35"/><polygon points="273.52 84.64 273.52 82.49 271.37 82.49 269.22 82.49 269.22 84.64 267.07 84.64 267.07 86.79 267.07 88.94 269.22 88.94 269.22 91.09 271.37 91.09 273.52 91.09 273.52 88.94 275.67 88.94 277.82 88.94 277.82 86.79 277.82 84.64 275.67 84.64 273.52 84.64" style="fill:#260b35"/><polygon points="277.82 93.24 279.97 93.24 279.97 91.09 279.97 88.94 277.82 88.94 277.82 91.09 277.82 93.24" style="fill:#260b35"/><polygon points="277.82 82.49 277.82 84.64 279.97 84.64 279.97 82.49 279.97 80.34 277.82 80.34 277.82 82.49" style="fill:#260b35"/><rect x="275.67" y="93.24" width="2.15" height="2.15" style="fill:#260b35"/><polygon points="262.77 86.79 262.77 84.64 262.77 82.49 264.92 82.49 264.92 80.34 267.07 80.34 267.07 78.19 269.22 78.19 271.37 78.19 273.52 78.19 275.67 78.19 275.67 76.04 273.52 76.04 273.52 73.89 271.37 73.89 271.37 71.74 269.22 71.74 267.07 71.74 264.92 71.74 262.77 71.74 262.77 73.89 260.62 73.89 260.62 76.04 258.47 76.04 258.47 78.19 256.32 78.19 256.32 80.34 256.32 82.49 254.17 82.49 252.02 82.49 249.87 82.49 247.72 82.49 247.72 84.64 249.87 84.64 252.02 84.64 254.17 84.64 256.32 84.64 256.32 86.79 256.32 88.94 258.47 88.94 260.62 88.94 260.62 91.09 262.77 91.09 262.77 88.94 262.77 86.79" style="fill:#260b35"/><polygon points="271.37 95.39 269.22 95.39 267.07 95.39 267.07 97.54 269.22 97.54 271.37 97.54 273.52 97.54 275.67 97.54 275.67 95.39 273.52 95.39 271.37 95.39" style="fill:#260b35"/><rect x="275.67" y="78.19" width="2.15" height="2.15" style="fill:#260b35"/><rect x="262.77" y="91.09" width="2.15" height="2.15" style="fill:#260b35"/><rect x="264.92" y="93.24" width="2.15" height="2.15" style="fill:#260b35"/><polygon points="288.56 95.39 288.56 97.54 290.71 97.54 292.86 97.54 292.86 95.39 290.71 95.39 288.56 95.39" style="fill:#260b35"/><rect x="316.51" y="88.94" width="2.15" height="2.15" style="fill:#260b35"/><rect x="314.36" y="86.79" width="2.15" height="2.15" style="fill:#260b35"/><polygon points="314.36 95.39 314.36 97.54 316.51 97.54 318.65 97.54 318.65 95.39 316.51 95.39 314.36 95.39" style="fill:#260b35"/><polygon points="318.65 95.39 320.81 95.39 320.81 93.24 320.81 91.09 318.65 91.09 318.65 93.24 318.65 95.39" style="fill:#260b35"/><polygon points="307.91 82.49 307.91 84.64 310.06 84.64 312.21 84.64 312.21 82.49 310.06 82.49 307.91 82.49" style="fill:#260b35"/><rect x="312.21" y="93.24" width="2.15" height="2.15" style="fill:#260b35"/><polygon points="303.61 95.39 303.61 97.54 305.76 97.54 307.91 97.54 307.91 95.39 305.76 95.39 303.61 95.39" style="fill:#260b35"/><polygon points="310.06 91.09 310.06 88.94 307.91 88.94 307.91 91.09 307.91 93.24 307.91 95.39 310.06 95.39 310.06 93.24 312.21 93.24 312.21 91.09 310.06 91.09" style="fill:#260b35"/><polygon points="303.61 91.09 303.61 88.94 303.61 86.79 303.61 84.64 303.61 82.49 303.61 80.34 303.61 78.19 305.76 78.19 307.91 78.19 310.06 78.19 312.21 78.19 314.36 78.19 316.51 78.19 316.51 76.04 314.36 76.04 314.36 73.89 312.21 73.89 312.21 71.74 310.06 71.74 307.91 71.74 305.76 71.74 303.61 71.74 301.46 71.74 299.31 71.74 299.31 73.89 297.16 73.89 297.16 76.04 295.01 76.04 295.01 73.89 292.86 73.89 292.86 71.74 290.71 71.74 288.56 71.74 286.41 71.74 284.26 71.74 282.11 71.74 279.97 71.74 279.97 73.89 277.82 73.89 277.82 76.04 277.82 78.19 279.97 78.19 279.97 80.34 282.11 80.34 282.11 82.49 282.11 84.64 282.11 86.79 282.11 88.94 282.11 91.09 284.26 91.09 284.26 93.24 286.41 93.24 286.41 95.39 288.56 95.39 288.56 93.24 288.56 91.09 288.56 88.94 288.56 86.79 288.56 84.64 288.56 82.49 286.41 82.49 284.26 82.49 284.26 80.34 284.26 78.19 286.41 78.19 288.56 78.19 290.71 78.19 292.86 78.19 295.01 78.19 297.16 78.19 297.16 80.34 297.16 82.49 295.01 82.49 292.86 82.49 292.86 84.64 292.86 86.79 292.86 88.94 292.86 91.09 292.86 93.24 292.86 95.39 295.01 95.39 295.01 93.24 295.01 91.09 295.01 88.94 295.01 86.79 295.01 84.64 297.16 84.64 297.16 86.79 297.16 88.94 297.16 91.09 299.31 91.09 299.31 93.24 301.46 93.24 301.46 95.39 303.61 95.39 303.61 93.24 303.61 91.09" style="fill:#260b35"/><rect x="327.25" y="93.24" width="2.15" height="2.15" style="fill:#260b35"/><polygon points="333.7 95.39 331.55 95.39 329.4 95.39 329.4 97.54 331.55 97.54 333.7 97.54 335.85 97.54 338 97.54 338 95.39 335.85 95.39 333.7 95.39" style="fill:#260b35"/><rect x="340.15" y="91.09" width="2.15" height="2.15" style="fill:#260b35"/><polygon points="335.85 82.49 333.7 82.49 331.55 82.49 331.55 84.64 329.4 84.64 329.4 86.79 329.4 88.94 331.55 88.94 331.55 91.09 333.7 91.09 335.85 91.09 335.85 88.94 338 88.94 338 86.79 338 84.64 335.85 84.64 335.85 82.49" style="fill:#260b35"/><rect x="338" y="93.24" width="2.15" height="2.15" style="fill:#260b35"/><polygon points="325.1 86.79 325.1 84.64 325.1 82.49 327.25 82.49 327.25 80.34 329.4 80.34 329.4 78.19 331.55 78.19 333.7 78.19 335.85 78.19 338 78.19 338 76.04 335.85 76.04 335.85 73.89 333.7 73.89 333.7 71.74 331.55 71.74 329.4 71.74 327.25 71.74 325.1 71.74 325.1 73.89 322.95 73.89 322.95 76.04 320.81 76.04 320.81 78.19 318.65 78.19 316.51 78.19 316.51 80.34 318.65 80.34 318.65 82.49 318.65 84.64 316.51 84.64 316.51 86.79 318.65 86.79 320.81 86.79 320.81 88.94 322.95 88.94 322.95 91.09 325.1 91.09 325.1 88.94 325.1 86.79" style="fill:#260b35"/><rect x="338" y="78.19" width="2.15" height="2.15" style="fill:#260b35"/><rect x="325.1" y="91.09" width="2.15" height="2.15" style="fill:#260b35"/><polygon points="355.2 91.09 355.2 88.94 353.05 88.94 353.05 91.09 353.05 93.24 353.05 95.39 355.2 95.39 355.2 93.24 357.35 93.24 357.35 91.09 355.2 91.09" style="fill:#260b35"/><polygon points="359.49 95.39 359.49 97.54 361.64 97.54 363.8 97.54 363.8 95.39 361.64 95.39 359.49 95.39" style="fill:#260b35"/><rect x="357.35" y="93.24" width="2.15" height="2.15" style="fill:#260b35"/><polygon points="348.75 95.39 348.75 97.54 350.9 97.54 353.05 97.54 353.05 95.39 350.9 95.39 348.75 95.39" style="fill:#260b35"/><polygon points="370.24 91.09 370.24 88.94 370.24 86.79 370.24 84.64 370.24 82.49 370.24 80.34 370.24 78.19 372.39 78.19 374.54 78.19 374.54 76.04 372.39 76.04 372.39 73.89 370.24 73.89 370.24 71.74 368.09 71.74 365.94 71.74 365.94 73.89 363.8 73.89 363.8 76.04 361.64 76.04 361.64 73.89 359.49 73.89 359.49 71.74 357.35 71.74 355.2 71.74 355.2 73.89 353.05 73.89 353.05 76.04 350.9 76.04 350.9 73.89 348.75 73.89 348.75 71.74 346.6 71.74 344.45 71.74 344.45 73.89 342.3 73.89 342.3 76.04 342.3 78.19 342.3 80.34 340.15 80.34 340.15 82.49 342.3 82.49 342.3 84.64 342.3 86.79 342.3 88.94 342.3 91.09 344.45 91.09 344.45 93.24 346.6 93.24 346.6 95.39 348.75 95.39 348.75 93.24 348.75 91.09 348.75 88.94 348.75 86.79 348.75 84.64 348.75 82.49 348.75 80.34 348.75 78.19 350.9 78.19 353.05 78.19 353.05 80.34 355.2 80.34 355.2 82.49 357.35 82.49 357.35 84.64 359.49 84.64 359.49 82.49 359.49 80.34 359.49 78.19 361.64 78.19 363.8 78.19 363.8 80.34 363.8 82.49 363.8 84.64 363.8 86.79 363.8 88.94 363.8 91.09 363.8 93.24 363.8 95.39 365.94 95.39 365.94 93.24 368.09 93.24 368.09 95.39 370.24 95.39 370.24 93.24 370.24 91.09" style="fill:#260b35"/><polygon points="370.24 95.39 370.24 97.54 372.39 97.54 374.54 97.54 374.54 95.39 372.39 95.39 370.24 95.39" style="fill:#260b35"/><rect x="396.04" y="91.09" width="2.15" height="2.15" style="fill:#260b35"/><polygon points="398.19 97.54 400.33 97.54 400.33 95.39 400.33 93.24 398.19 93.24 398.19 95.39 398.19 97.54" style="fill:#260b35"/><polygon points="393.89 97.54 393.89 99.68 396.04 99.68 398.19 99.68 398.19 97.54 396.04 97.54 393.89 97.54" style="fill:#260b35"/><polygon points="391.74 82.49 389.59 82.49 387.44 82.49 387.44 84.64 385.29 84.64 385.29 86.79 385.29 88.94 387.44 88.94 387.44 91.09 389.59 91.09 389.59 88.94 391.74 88.94 393.89 88.94 393.89 86.79 393.89 84.64 391.74 84.64 391.74 82.49" style="fill:#260b35"/><rect x="393.89" y="78.19" width="2.15" height="2.15" style="fill:#260b35"/><rect x="383.14" y="93.24" width="2.15" height="2.15" style="fill:#260b35"/><polygon points="391.74 95.39 389.59 95.39 387.44 95.39 385.29 95.39 385.29 97.54 387.44 97.54 389.59 97.54 391.74 97.54 393.89 97.54 393.89 95.39 391.74 95.39" style="fill:#260b35"/><polygon points="380.99 86.79 380.99 84.64 380.99 82.49 383.14 82.49 383.14 80.34 385.29 80.34 385.29 78.19 387.44 78.19 389.59 78.19 391.74 78.19 393.89 78.19 393.89 76.04 391.74 76.04 391.74 73.89 389.59 73.89 389.59 71.74 387.44 71.74 385.29 71.74 383.14 71.74 380.99 71.74 380.99 73.89 378.84 73.89 378.84 76.04 376.69 76.04 376.69 78.19 374.54 78.19 374.54 80.34 374.54 82.49 374.54 84.64 374.54 86.79 374.54 88.94 374.54 91.09 374.54 93.24 374.54 95.39 376.69 95.39 376.69 93.24 376.69 91.09 376.69 88.94 378.84 88.94 378.84 91.09 380.99 91.09 380.99 88.94 380.99 86.79" style="fill:#260b35"/><rect x="380.99" y="91.09" width="2.15" height="2.15" style="fill:#260b35"/><rect x="417.53" y="93.24" width="2.15" height="2.15" style="fill:#260b35"/><rect x="404.63" y="93.24" width="2.15" height="2.15" style="fill:#260b35"/><polygon points="413.23 95.39 411.08 95.39 408.93 95.39 406.78 95.39 406.78 97.54 408.93 97.54 411.08 97.54 413.23 97.54 415.38 97.54 417.53 97.54 417.53 95.39 415.38 95.39 413.23 95.39" style="fill:#260b35"/><polygon points="434.73 95.39 432.58 95.39 430.43 95.39 428.28 95.39 426.13 95.39 426.13 97.54 428.28 97.54 430.43 97.54 432.58 97.54 434.73 97.54 436.88 97.54 439.02 97.54 439.02 95.39 436.88 95.39 434.73 95.39" style="fill:#260b35"/><polygon points="434.73 82.49 432.58 82.49 430.43 82.49 430.43 84.64 432.58 84.64 434.73 84.64 436.88 84.64 439.02 84.64 439.02 82.49 436.88 82.49 434.73 82.49" style="fill:#260b35"/><polygon points="454.07 82.49 451.92 82.49 451.92 84.64 454.07 84.64 454.07 86.79 456.22 86.79 456.22 84.64 458.37 84.64 458.37 82.49 456.22 82.49 454.07 82.49" style="fill:#260b35"/><rect x="456.22" y="86.79" width="2.15" height="2.15" style="fill:#260b35"/><polygon points="458.37 78.19 458.37 80.34 458.37 82.49 460.52 82.49 460.52 80.34 460.52 78.19 458.37 78.19" style="fill:#260b35"/><rect x="456.22" y="93.24" width="2.15" height="2.15" style="fill:#260b35"/><polygon points="445.47 91.09 447.62 91.09 449.77 91.09 451.92 91.09 451.92 88.94 449.77 88.94 449.77 86.79 447.62 86.79 447.62 84.64 445.47 84.64 445.47 82.49 445.47 80.34 447.62 80.34 447.62 78.19 449.77 78.19 451.92 78.19 454.07 78.19 456.22 78.19 458.37 78.19 458.37 76.04 456.22 76.04 456.22 73.89 454.07 73.89 454.07 71.74 451.92 71.74 449.77 71.74 447.62 71.74 445.47 71.74 443.32 71.74 443.32 73.89 441.17 73.89 441.17 76.04 439.02 76.04 436.88 76.04 436.88 73.89 434.73 73.89 434.73 71.74 432.58 71.74 430.43 71.74 428.28 71.74 426.13 71.74 423.98 71.74 421.83 71.74 421.83 73.89 419.68 73.89 419.68 76.04 417.53 76.04 417.53 73.89 415.38 73.89 415.38 71.74 413.23 71.74 411.08 71.74 411.08 73.89 408.93 73.89 408.93 76.04 406.78 76.04 406.78 73.89 404.63 73.89 404.63 71.74 402.48 71.74 400.33 71.74 400.33 73.89 398.19 73.89 398.19 76.04 398.19 78.19 398.19 80.34 396.04 80.34 396.04 82.49 398.19 82.49 398.19 84.64 398.19 86.79 398.19 88.94 398.19 91.09 400.33 91.09 402.48 91.09 402.48 93.24 404.63 93.24 404.63 91.09 404.63 88.94 404.63 86.79 404.63 84.64 404.63 82.49 404.63 80.34 404.63 78.19 406.78 78.19 408.93 78.19 408.93 80.34 408.93 82.49 408.93 84.64 408.93 86.79 408.93 88.94 411.08 88.94 413.23 88.94 415.38 88.94 415.38 86.79 415.38 84.64 415.38 82.49 415.38 80.34 415.38 78.19 417.53 78.19 419.68 78.19 419.68 80.34 419.68 82.49 419.68 84.64 419.68 86.79 419.68 88.94 419.68 91.09 419.68 93.24 421.83 93.24 423.98 93.24 423.98 95.39 426.13 95.39 426.13 93.24 426.13 91.09 426.13 88.94 426.13 86.79 426.13 84.64 426.13 82.49 426.13 80.34 426.13 78.19 428.28 78.19 430.43 78.19 432.58 78.19 434.73 78.19 436.88 78.19 439.02 78.19 439.02 80.34 439.02 82.49 441.17 82.49 443.32 82.49 443.32 84.64 441.17 84.64 439.02 84.64 439.02 86.79 439.02 88.94 436.88 88.94 434.73 88.94 432.58 88.94 430.43 88.94 430.43 91.09 432.58 91.09 434.73 91.09 436.88 91.09 439.02 91.09 439.02 93.24 439.02 95.39 441.17 95.39 441.17 93.24 443.32 93.24 443.32 95.39 445.47 95.39 445.47 93.24 445.47 91.09" style="fill:#260b35"/><polygon points="451.92 95.39 449.77 95.39 447.62 95.39 445.47 95.39 445.47 97.54 447.62 97.54 449.77 97.54 451.92 97.54 454.07 97.54 456.22 97.54 456.22 95.39 454.07 95.39 451.92 95.39" style="fill:#260b35"/><polygon points="458.37 93.24 460.52 93.24 460.52 91.09 460.52 88.94 458.37 88.94 458.37 91.09 458.37 93.24" style="fill:#260b35"/><polygon points="215.78 73.84 215.78 71.69 213.64 71.69 213.64 73.83 215.78 73.84" style="fill:#260b35"/><polygon points="213.67 76.04 213.65 76.04 213.65 73.83 211.5 73.83 211.5 76.04 207.21 76.04 207.21 73.83 209.35 73.83 209.35 71.69 213.64 71.69 213.64 69.55 211.5 69.55 211.5 67.4 209.35 67.4 209.35 65.26 205.06 65.26 205.06 67.4 202.92 67.4 202.92 69.55 200.77 69.55 200.77 71.69 198.63 71.69 198.63 73.83 196.48 73.84 196.48 78.19 196.48 80.34 196.48 82.49 196.48 84.64 196.48 86.79 196.48 88.94 196.48 91.09 198.63 91.09 198.63 93.24 200.78 93.24 200.78 95.39 202.93 95.39 202.93 93.24 202.93 91.09 202.93 88.94 202.93 86.79 202.93 84.64 202.93 82.49 202.93 80.34 202.93 78.19 215.82 78.19 215.82 76.04 213.67 76.04" style="fill:#260b35"/></svg>